HIERARCHY
ROOT Root
{
	OFFSET 0.00 0.00 0.00
	CHANNELS 6 Xposition Yposition Zposition Xrotation Yrotation Zrotation
	JOINT L_Femur
	{
		OFFSET 3.93700 0.00000 0.00000
		CHANNELS 3 Xrotation Yrotation Zrotation
		JOINT L_Tibia
		{
			OFFSET 0.00000 -19.68500 0.00000
			CHANNELS 3 Xrotation Yrotation Zrotation
			JOINT L_Foot
			{
				OFFSET 0.00000 -15.80848 0.00000
				CHANNELS 3 Xrotation Yrotation Zrotation
				JOINT L_Toe
				{
					OFFSET 0.00000 -1.78320 6.65499
					CHANNELS 3 Xrotation Yrotation Zrotation
					End Site
					{
						OFFSET 0.00000 0.00000 2.95275
					}
				}
			}
		}
	}
	JOINT R_Femur
	{
		OFFSET -3.93700 0.00000 0.00000
		CHANNELS 3 Xrotation Yrotation Zrotation
		JOINT R_Tibia
		{
			OFFSET 0.00000 -19.68500 0.00000
			CHANNELS 3 Xrotation Yrotation Zrotation
			JOINT R_Foot
			{
				OFFSET 0.00000 -15.80848 0.00000
				CHANNELS 3 Xrotation Yrotation Zrotation
				JOINT R_Toe
				{
					OFFSET 0.00000 -1.78320 6.65499
					CHANNELS 3 Xrotation Yrotation Zrotation
					End Site
					{
						OFFSET 0.00000 0.00000 2.95275
					}
				}
			}
		}
	}
	JOINT LowerBack
	{
		OFFSET 0.00000 0.03937 0.00000
		CHANNELS 3 Xrotation Yrotation Zrotation
		JOINT Thorax
		{
			OFFSET 0.00000 8.21092 0.00000
			CHANNELS 3 Xrotation Yrotation Zrotation
			JOINT Neck
			{
				OFFSET 0.00000 6.66534 0.00000
				CHANNELS 3 Xrotation Yrotation Zrotation
				JOINT Head
				{
					OFFSET 0.00000 4.52755 0.00000
					CHANNELS 3 Xrotation Yrotation Zrotation
					End Site
					{
						OFFSET 0.00000 4.52755 0.00000
					}
				}
			}
			JOINT L_Collar
			{
				OFFSET 0.00000 6.66534 0.00000
				CHANNELS 3 Xrotation Yrotation Zrotation
				JOINT L_Humerus
				{
					OFFSET 5.90550 0.00000 0.00000
					CHANNELS 3 Xrotation Yrotation Zrotation
					JOINT L_Elbow
					{
						OFFSET 11.11226 0.00000 0.00000
						CHANNELS 3 Xrotation Yrotation Zrotation
						JOINT L_Wrist
						{
							OFFSET 10.82675 -0.00000 0.00000
							CHANNELS 3 Xrotation Yrotation Zrotation
							End Site
							{
								OFFSET 5.33191 -0.00000 0.00000
							}
						}
					}
				}
			}
			JOINT R_Collar
			{
				OFFSET 0.00000 6.66534 0.00000
				CHANNELS 3 Xrotation Yrotation Zrotation
				JOINT R_Humerus
				{
					OFFSET -5.90550 0.00000 0.00000
					CHANNELS 3 Xrotation Yrotation Zrotation
					JOINT R_Elbow
					{
						OFFSET -11.11226 0.00000 0.00000
						CHANNELS 3 Xrotation Yrotation Zrotation
						JOINT R_Wrist
						{
							OFFSET -10.82675 0.00000 0.00000
							CHANNELS 3 Xrotation Yrotation Zrotation
							End Site
							{
								OFFSET -5.41338 0.00000 0.00000
							}
						}
					}
				}
			}
		}
	}
}
MOTION
Frames: 7
Frame Time: 0.008333
 6.1016 38.4140 -10.9337 13.3877 4.5248 0.2131 -19.5232 1.4175 4.5704 25.8909 0.0000 0.0000 -14.3458 14.4256 -8.5442 12.3870 -0.0000 0.0000 -16.2332 -6.9661 -3.0172 17.8152 0.0000 -0.0000 -17.8902 -28.0990 5.2424 21.0954 0.0000 0.0000 -15.8756 -1.9138 -4.3788 -4.6495 -2.7173 0.3669 17.7187 -7.2263 5.2482 -12.6415 -7.8800 -1.1182 -4.2081 9.6082 6.6862 -15.7487 -0.6535 -24.5507 0.0000 -36.2388 0.0000 -0.0000 0.0000 -0.0000 -8.5486 -2.3016 -4.9204 -20.6360 -9.4582 23.7399 0.0000 24.7185 -0.0000 -0.0000 0.0000 -0.0000
 6.1012 38.4134 -10.9334 13.3775 4.5227 0.2042 -19.5390 1.4697 4.5937 25.9354 0.0000 -0.0000 -14.3472 14.3680 -8.5440 12.3547 -0.0000 -0.0000 -16.2196 -6.9588 -3.0052 17.8128 0.0000 0.0000 -17.8852 -28.1036 5.2427 21.0813 0.0000 0.0000 -15.8681 -1.9123 -4.3747 -4.6503 -2.7161 0.3714 17.7121 -7.2115 5.2401 -12.6288 -7.8732 -1.1103 -4.1995 9.6008 6.6719 -15.7077 -0.6869 -24.5381 0.0000 -36.2158 0.0000 -0.0000 0.0000 -0.0000 -8.5450 -2.3091 -4.9163 -20.6249 -9.4492 23.7407 0.0000 24.6914 -0.0000 -0.0000 0.0000 -0.0000
 6.1001 38.4140 -10.9332 13.3827 4.5256 0.2034 -19.5221 1.4138 4.5827 25.8994 0.0000 -0.0000 -14.3427 14.4279 -8.5464 12.3839 0.0000 -0.0000 -16.2202 -6.9437 -3.0012 17.8070 0.0000 -0.0000 -17.8777 -28.1219 5.2497 21.0430 -0.0000 0.0000 -15.8419 -1.9142 -4.3796 -4.7153 -2.7151 0.3701 17.7387 -7.1939 5.2492 -12.6205 -7.8510 -1.1143 -4.1787 9.6119 6.6666 -15.6871 -0.7076 -24.5417 0.0000 -36.2135 0.0000 -0.0000 0.0000 -0.0000 -8.6150 -2.2759 -4.8515 -20.4716 -9.4555 23.6474 0.0000 24.6865 0.0000 -0.0000 0.0000 -0.0000
 6.0997 38.4140 -10.9328 13.3774 4.5281 0.2065 -19.5122 1.4057 4.5779 25.8916 -0.0000 -0.0000 -14.3413 14.4384 -8.5402 12.3915 0.0000 0.0000 -16.2137 -6.9456 -3.0040 17.8055 -0.0000 -0.0000 -17.8865 -28.1221 5.2429 21.0923 -0.0000 0.0000 -15.8707 -1.9213 -4.3664 -4.6634 -2.7230 0.3285 17.7414 -7.1791 5.2618 -12.6407 -7.8174 -1.1088 -4.1961 9.6110 6.6708 -15.6818 -0.7138 -24.5162 0.0000 -36.1846 0.0000 -0.0000 0.0000 -0.0000 -8.5363 -2.3043 -4.8630 -20.5932 -9.4396 23.7246 0.0000 24.6329 -0.0000 -0.0000 0.0000 -0.0000
 6.0987 38.4131 -10.9323 13.3789 4.5126 0.2005 -19.5130 1.4280 4.5922 25.8929 0.0000 0.0000 -14.3533 14.4299 -8.5448 12.3849 -0.0000 0.0000 -16.2122 -6.9270 -2.9917 17.8029 0.0000 0.0000 -17.8822 -28.1271 5.2551 21.0575 0.0000 -0.0000 -15.8821 -1.9071 -4.3822 -4.6402 -2.7092 0.3554 17.7100 -7.1907 5.2691 -12.6145 -7.8032 -1.1059 -4.2113 9.6039 6.6820 -15.6852 -0.7114 -24.5450 0.0000 -36.1802 -0.0000 -0.0000 0.0000 -0.0000 -8.5361 -2.3246 -4.8817 -20.6024 -9.4724 23.7164 -0.0000 24.6595 0.0000 -0.0000 0.0000 -0.0000
 6.0980 38.4133 -10.9317 13.3815 4.5063 0.2004 -19.5121 1.4278 4.5943 25.8902 0.0000 0.0000 -14.3549 14.4316 -8.5522 12.3810 -0.0000 0.0000 -16.2139 -6.9260 -2.9890 17.7994 -0.0000 -0.0000 -17.8821 -28.1256 5.2522 21.0681 -0.0000 0.0000 -15.8940 -1.9096 -4.3944 -4.6387 -2.7127 0.3738 17.7267 -7.1624 5.2565 -12.6217 -7.7983 -1.1026 -4.2022 9.6110 6.6757 -15.6843 -0.7054 -24.5474 0.0000 -36.1739 -0.0000 -0.0000 0.0000 -0.0000 -8.6365 -2.2564 -4.8154 -20.4572 -9.4899 23.6096 0.0000 24.6606 0.0000 -0.0000 0.0000 -0.0000
 6.0975 38.4133 -10.9317 13.3821 4.5034 0.2010 -19.5106 1.4232 4.5998 25.8787 0.0000 0.0000 -14.3536 14.4074 -8.5184 12.4023 0.0000 -0.0000 -16.2152 -6.9372 -2.9901 17.7990 -0.0000 0.0000 -17.8843 -28.1118 5.2548 21.0630 -0.0000 0.0000 -15.8971 -1.9106 -4.3995 -4.6395 -2.7135 0.3760 17.7292 -7.1529 5.2539 -12.6235 -7.7923 -1.1017 -4.2069 9.6135 6.6762 -15.6680 -0.7080 -24.5433 0.0000 -36.1527 -0.0000 -0.0000 0.0000 -0.0000 -8.6423 -2.2546 -4.8104 -20.4346 -9.4874 23.6106 0.0000 24.6175 -0.0000 -0.0000 0.0000 -0.0000
